<svg width="88" height="88" viewBox="0 0 88 88" fill="none" xmlns="http://www.w3.org/2000/svg">
<g clip-path="url(#clip0_178_1270)">
<path d="M73.0794 77.1664V85.6492C73.0794 86.4422 72.4365 87.0852 71.6434 87.0852C70.8504 87.0852 70.2074 86.4422 70.2074 85.6492V77.1664C70.2074 70.5616 64.8627 65.2168 58.2574 65.2168C55.132 65.2168 52.2963 63.6246 50.6719 60.9573C50.2593 60.2801 50.474 59.3966 51.1514 58.9841C51.8283 58.571 52.712 58.7859 53.1247 59.4635C54.2236 61.2677 56.1425 62.3447 58.2574 62.3447C66.4495 62.3444 73.0794 68.9737 73.0794 77.1664ZM46.3111 61.6743C43.305 62.3295 40.2538 61.6646 37.8332 60.0026C38.2484 59.0839 38.5035 58.0953 38.5844 57.0711C50.8935 60.6944 63.2068 51.4042 63.2068 38.6428C63.2068 26.4636 63.2217 26.6574 63.1723 26.1581C62.9833 24.1787 60.1233 24.4479 60.3141 26.4397C60.3462 26.7653 60.3347 27.0502 60.3347 38.6427C60.3347 47.6497 53.0071 54.9774 44 54.9774C34.9929 54.9774 27.6653 47.6497 27.6653 38.6427C27.6653 35.4077 27.6308 32.9025 27.6195 31.024C27.5904 26.3112 31.9486 22.7301 36.6646 23.8606C43.3159 25.4555 45.9966 29.6042 54.5219 29.2071C55.3141 29.1699 55.9262 28.4977 55.889 27.7054C55.8519 26.9132 55.1837 26.3053 54.3873 26.3383C46.7017 26.6996 44.5714 22.8035 37.3344 21.0679C30.7911 19.4983 24.7074 24.4767 24.7475 31.0418C24.7572 32.5686 24.7773 34.2409 24.7873 36.3005C23.8313 35.802 23.1775 34.8133 23.1775 33.676C23.1775 33.6431 23.1777 26.2169 23.1772 26.1843C23.1052 22.9294 23.5689 14.7507 29.4156 9.11466C35.9479 2.81806 46.1682 2.81573 54.1148 5.58563L52.9669 6.05809C51.5964 6.6219 51.8829 8.65549 53.3605 8.81381L55.8847 9.08414C60.7428 9.60434 65.039 12.1377 67.7915 16.0741C65.985 18.2693 65.0016 21.0017 65.0016 23.8804V33.6758C65.0016 34.4689 65.6446 35.1118 66.4377 35.1118C67.2307 35.1118 67.8737 34.4689 67.8737 33.6758V23.8804C67.8737 21.3847 68.8374 19.0325 70.5874 17.2574C71.0746 16.7638 71.1343 15.9672 70.7945 15.4188C67.9315 10.8273 63.6712 7.87088 58.809 6.68509C59.5956 6.01411 59.4408 4.76746 58.5304 4.30704C54.3557 2.19842 48.4005 0.718242 42.7333 0.936337C28.396 1.49208 20.0034 12.1994 20.3059 26.2318V33.6762C20.3059 36.4235 22.228 38.7322 24.808 39.3522C25.0756 46.6869 29.4748 52.9849 35.7431 55.9821V56.3599C35.7431 59.6707 33.0604 62.3449 29.7428 62.3449C21.5337 62.3449 14.9208 68.9903 14.9208 77.1666V85.6494C14.9208 86.4424 15.5638 87.0854 16.3568 87.0854C17.1498 87.0854 17.7928 86.4424 17.7928 85.6494V77.1666C17.7928 70.5622 23.1375 65.2169 29.7428 65.2169C32.1882 65.2169 34.5169 64.2369 36.2394 62.3908C39.3008 64.4804 43.1447 65.304 46.9227 64.4806C47.6976 64.3119 48.1889 63.5467 48.02 62.7718C47.8511 61.9967 47.0855 61.5048 46.3111 61.6743V61.6743ZM58.5397 79.7256H54.2317C53.4386 79.7256 52.7956 80.3686 52.7956 81.1616C52.7956 81.9547 53.4386 82.5976 54.2317 82.5976H58.5397C59.3328 82.5976 59.9757 81.9547 59.9757 81.1616C59.9757 80.3686 59.3328 79.7256 58.5397 79.7256Z" fill="white"/>
<path d="M16.7128 85.6489H71.2872" stroke="white" stroke-width="3"/>
</g>
<defs>
<clipPath id="clip0_178_1270">
<rect width="86.1702" height="86.1702" fill="white" transform="translate(0.914917 0.914917)"/>
</clipPath>
</defs>
</svg>
